<svg viewBox="0 0 64 64" xmlns="http://www.w3.org/2000/svg"><g data-name="10"><path d="M51.5 27.5a1 1 0 0 0-1 1v14h-44v-24h34a1 1 0 0 0 0-2h-35a1 1 0 0 0-1 1v31a1 1 0 0 0 1 1h16.92l-2.4 3H15.5a1 1 0 0 0 0 2h26a1 1 0 0 0 0-2h-4.52l-2.4-3H51.5a1 1 0 0 0 1-1v-20a1 1 0 0 0-1-1Zm-17.08 25H22.58l2.4-3h7.04Zm16.08-5h-44v-3h44Z" fill="#000000" class="fill-006df0"></path><path d="M59.47 12.6a.826.826 0 0 0-.08-.22.965.965 0 0 0-.31-.36.913.913 0 0 0-.13-.08.471.471 0 0 0-.15-.06l-6.98-2.33a1 1 0 0 0-.64 0l-6.98 2.33a.471.471 0 0 0-.15.06.913.913 0 0 0-.13.08.965.965 0 0 0-.31.36.826.826 0 0 0-.08.22.852.852 0 0 0-.03.23v9.34a1.014 1.014 0 0 0 .68.95l7 2.33.12.03a1.01 1.01 0 0 0 .4 0l.12-.03 7-2.33a1.014 1.014 0 0 0 .68-.95v-9.34a.852.852 0 0 0-.03-.23Zm-7.97-1.05 3.84 1.28-3.84 1.28-3.84-1.28Zm-6 2.67 5 1.67v7.23l-5-1.67Zm12 7.23-5 1.67v-7.23l5-1.67ZM41.52 14a1 1 0 0 1-.01-2h.01a1 1 0 0 1 0 2ZM38.52 14a1 1 0 0 1-.01-2h.01a1 1 0 0 1 0 2ZM35.52 14a1 1 0 0 1-.01-2h.01a1 1 0 0 1 0 2ZM58.52 32a1 1 0 0 1-.01-2h.01a1 1 0 1 1 0 2ZM58.52 29a1 1 0 0 1-.01-2h.01a1 1 0 1 1 0 2ZM58.52 26a1 1 0 0 1-.01-2h.01a1 1 0 1 1 0 2ZM28.5 40.5a1 1 0 0 1-1-1v-18a1 1 0 0 1 2 0v18a1 1 0 0 1-1 1ZM36 34a1 1 0 0 1-.707-.293l-2.5-2.5a1 1 0 0 1 0-1.414l2.5-2.5a1 1 0 0 1 1.414 1.414L34.914 30.5l1.793 1.793A1 1 0 0 1 36 34ZM44 34a1 1 0 0 1-.707-1.707l1.793-1.793-1.793-1.793a1 1 0 0 1 1.414-1.414l2.5 2.5a1 1 0 0 1 0 1.414l-2.5 2.5A1 1 0 0 1 44 34ZM39 34a1 1 0 0 1-.929-1.371l2-5a1 1 0 1 1 1.858.742l-2 5A1 1 0 0 1 39 34ZM12.5 23.5h-3a1 1 0 0 1 0-2h3a1 1 0 0 1 0 2ZM18.5 26.5h-9a1 1 0 0 1 0-2h9a1 1 0 0 1 0 2ZM15.5 31.5h-6a1 1 0 0 1 0-2h6a1 1 0 0 1 0 2ZM12.5 39.5h-3a1 1 0 0 1 0-2h3a1 1 0 0 1 0 2ZM12.5 34.5h-3a1 1 0 0 1 0-2h3a1 1 0 0 1 0 2ZM18.5 34.5h-3a1 1 0 0 1 0-2h3a1 1 0 0 1 0 2Z" fill="#000000" class="fill-006df0"></path></g></svg>